<?xml version="1.0" standalone="no"?><!DOCTYPE svg PUBLIC "-//W3C//DTD SVG 1.1//EN" "http://www.w3.org/Graphics/SVG/1.1/DTD/svg11.dtd"><svg width="100px" height="100px" version="1.1" xmlns="http://www.w3.org/2000/svg" xmlns:xlink="http://www.w3.org/1999/xlink" xml:space="preserve" style="fill-rule:evenodd;clip-rule:evenodd;stroke-linecap:round;stroke-linejoin:round;stroke-miterlimit:1.41421;"><g><g id="Layer1"><path d="M23.8387,13.1848c-7.65645,2.09073 -13.0867,9.32016 -13.8039,17.1716c-0.153417,1.67954 -0.099345,3.37253 0.341593,5.00907c1.94732,7.22751 10.1811,8.62892 16.4063,6.29535c7.60062,-2.8492 14.1713,-11.061 15.2321,-19.1724c0.199062,-1.52222 0.215218,-3.13713 -0.129037,-4.64056c-1.93214,-8.43803 -12.6601,-8.77403 -19.149,-6.09808c-3.08007,1.27018 -5.69704,3.27636 -8.06093,5.59092" style="fill:#ff008e;"/><path d="M68.9077,11.673c-1.29965,-0.0982905 -2.45124,-0.23518 -3.7232,0.0461722c-6.47793,1.4329 -7.40762,8.94656 -7.0288,14.4544c0.1154,1.67785 0.366806,3.3638 0.748562,5.00172c0.410062,1.75937 0.997333,3.47734 1.67364,5.15086c2.73967,6.77929 8.05499,14.5451 16.2567,14.5234c8.81489,-0.0233242 12.4135,-10.4327 11.4659,-17.7638c-1.44755,-11.1989 -12.0744,-21.8095 -23.7918,-21.0605" style="fill:#ff008e;"/><path d="M44.5786,32.6409c-0.140594,5.25221 -2.68226,10.8304 -6.75994,14.1977c-2.02993,1.67634 -4.5757,2.71231 -6.75953,4.16776c-5.37068,3.57939 -11.2625,10.4648 -9.59279,17.4698c0.6449,2.70556 3.12579,3.5593 5.56191,2.48349c3.26193,-1.44049 5.3529,-5.03109 7.07865,-7.98289c0.479497,-0.820156 0.952069,-1.64426 1.43175,-2.46429c0.109851,-0.187793 0.419628,-0.917456 0.690949,-0.983917c0.101939,-0.0249706 0.0155129,2.00726 0.0114409,2.09368c-0.0763113,1.6197 -0.102183,3.24219 0.0809035,4.85625c0.364187,3.21063 1.31345,7.01607 3.48907,9.50616c1.0168,1.16377 2.51321,2.32716 4.15175,1.85549c1.29915,-0.373972 2.09213,-1.53854 2.58898,-2.73194c1.06922,-2.5682 1.24248,-5.52058 1.40887,-8.26237c0.0731956,-1.20613 0.129364,-2.41317 0.18428,-3.62023c0.0160167,-0.352046 0.031544,-0.704117 0.0457636,-1.05624c0.00675935,-0.167383 -0.0325164,-0.654786 0.0347313,-0.501357c0.627604,1.43191 0.785268,3.21762 1.25155,4.71488c1.212,3.89175 2.93144,7.82718 6.09923,10.5354c2.68441,2.295 6.19052,2.65 7.93467,-0.9071c0.930319,-1.89733 0.859882,-4.12913 0.449055,-6.14989c-0.785572,-3.86405 -2.6975,-7.4026 -4.90202,-10.631c-1.27436,-1.86627 -2.75585,-3.78829 -4.73694,-4.95963c-0.248917,-0.147174 -2.28092,-0.953464 -2.24528,-0.0228818c0.0114899,0.300015 0.387124,-0.260627 0.402883,-0.313808c0.184031,-0.62104 0.167677,-1.32836 0.176517,-1.96702c0.022963,-1.65908 -0.0265326,-3.31665 -0.0612905,-4.97516c-0.098952,-4.72159 -0.10276,-9.43783 -0.0347313,-14.1597" style="fill:none;stroke-width:1px;stroke:#000;"/><path d="M69.8712,24.6425c2.76598,4.56731 6.13623,8.31714 9.61608,12.3304" style="fill:none;stroke-width:1px;stroke:#000;"/><path d="M67.722,35.4002c3.91941,-4.37743 9.06209,-7.64371 14.1222,-10.5624" style="fill:none;stroke-width:1px;stroke:#000;"/><path d="M24.3184,21.1411c2.24479,4.17029 4.82458,8.00441 7.64661,11.8058" style="fill:none;stroke-width:1px;stroke:#000;"/><path d="M19.7772,31.0146c4.75656,-5.77869 11.4848,-10.7419 18.1183,-14.1561" style="fill:none;stroke-width:1px;stroke:#000;"/><path d="M9.15967,68.0092c4.5345,5.29354 10.6884,9.18617 16.8055,12.3917c6.39463,3.35101 13.2664,6.38494 20.4906,7.30365c11.2407,1.4295 22.7187,-2.07375 32.2902,-7.86128c2.88758,-1.74602 5.61325,-3.51433 8.13422,-5.77614" style="fill:none;stroke-width:1px;stroke:#000;"/><path d="M17.7199,76.0534c-3.27511,-0.167152 -6.01879,2.55422 -6.79835,5.71759c-0.550809,2.23513 -0.150752,5.03661 2.36091,5.74415c4.39793,1.23891 8.8186,-2.32046 11.8037,-5.05524c1.06261,-0.973493 2.02048,-2.04934 3.01345,-3.09231c0.476399,-0.500389 0.447857,-0.469741 0.909552,-0.929982c0.136282,-0.135853 0.526925,-0.559066 0.410647,-0.405743c-2.76726,3.64887 -4.58853,8.61206 -4.58853,13.215c0,1.78653 0.649522,4.4299 2.74245,4.81011c1.44676,0.262822 2.97176,-0.563802 4.1032,-1.35861c2.69684,-1.89446 4.70652,-4.997 5.8463,-8.04826c0.381345,-1.02088 0.49949,-2.38983 1.06727,-3.32562c0.0901656,-0.148606 0.0298203,0.346742 0.0306453,0.520561c0.000823533,0.173518 0,0.347041 0,0.520561c0,0.472521 -0.00560578,1.0398 0.0192044,1.50775c0.0684358,1.29078 0.354562,2.54606 0.81353,3.75425c1.2112,3.18836 3.66559,6.02794 6.59486,7.75325c1.02015,0.60086 2.38456,1.10785 3.58917,0.929982c3.75535,-0.554488 4.62279,-5.32412 4.44888,-8.37719c-0.0582048,-1.02179 -0.193842,-2.0542 -0.433528,-3.04982c-0.0630631,-0.261954 -0.139492,-0.54277 -0.238216,-0.79596c-0.0457056,-0.117218 -0.179304,-0.441362 -0.203485,-0.317894c-0.0709063,0.362052 0.343957,1.00458 0.49155,1.28955c0.501735,0.968752 1.10873,1.90313 1.77334,2.76706c2.05093,2.666 4.95365,5.2304 8.06502,6.56708c1.36315,0.585625 3.0641,0.94843 4.51425,0.440066c2.96108,-1.03803 2.46019,-4.33091 1.74269,-6.7011c-0.236192,-0.780242 -0.525772,-1.55643 -0.894433,-2.2845c-0.0210148,-0.0415024 -0.869353,-1.44805 -0.782884,-1.48487c0.170379,-0.0725483 0.696653,0.424231 0.755917,0.470711c0.86303,0.676871 1.70293,1.37654 2.62977,1.96702c2.02706,1.29141 4.84702,2.55207 7.29163,1.6996c4.22529,-1.47342 0.50848,-6.69738 -1.2921,-8.35861c-1.37753,-1.27091 -2.87067,-2.41684 -4.31853,-3.6047" style="fill:none;stroke-width:1px;stroke:#000;"/><path d="M-1.43869,9.32352c0.288195,0.917364 0.548779,1.81344 0.936519,2.69025c0.244996,0.554014 0.526505,1.09398 0.890756,1.58048c0.198084,0.264564 0.432769,0.518313 0.683185,0.734669c2.68102,2.31637 4.17163,-2.51413 4.77535,-4.32057c0.228312,-0.683158 0.217444,-0.647386 0.449055,-1.36228c0.277507,-0.85656 0.549558,-1.72772 0.974928,-2.52558c0.0224068,-0.0420282 0.249316,-0.517703 0.36856,-0.463356c0.133458,0.0608239 0.104301,0.633688 0.11114,0.723637c0.0498253,0.655336 0.0980604,1.31379 0.203485,1.96293c0.262632,1.61714 0.970905,4.43582 2.72539,5.09774c0.908267,0.342667 1.83308,-0.0899926 2.50311,-0.704433c1.45677,-1.33592 2.39446,-3.45866 3.25126,-5.20438c0.280471,-0.571456 0.794677,-2.14471 1.5008,-2.38829c0.34816,-0.120099 0.701733,2.02684 0.756325,2.2273c0.402105,1.47648 1.0951,3.62134 2.97872,3.61287c2.53728,-0.0114121 4.07811,-3.57628 5.12062,-5.37681c0.302292,-0.52209 0.91884,-1.98024 1.65811,-2.04751c0.631879,-0.0574992 0.972055,1.5528 1.102,1.94005c0.480932,1.4332 1.09885,4.40822 2.96728,4.58862c2.10148,0.202901 3.66355,-2.83116 4.56002,-4.30546c0.140497,-0.231057 1.04418,-2.29801 1.48568,-2.07407c0.465327,0.236023 0.553218,1.6827 0.644776,2.09736c0.355161,1.60851 0.764585,5.19268 2.65265,5.82832c1.65762,0.558054 2.72474,-2.26114 3.16668,-3.34851c0.0448373,-0.11032 0.766072,-1.92654 0.890756,-1.70674c0.458618,0.808506 0.293824,2.24683 0.36856,3.13031c0.162706,1.9234 0.438331,3.89747 0.986369,5.75191c0.264293,0.894311 0.845225,3.1551 2.17663,3.09967c0.879528,-0.0366204 1.5203,-1.03016 1.91553,-1.6953c1.32713,-2.2334 2.21509,-4.68171 2.92478,-7.16772c0.218545,-0.765549 0.401815,-1.55384 0.714239,-2.28859c0.00226611,-0.00532939 0.169553,-0.466645 0.299098,-0.424948c0.26826,0.086346 0.3347,1.43329 0.364883,1.62256c0.25611,1.60601 0.563498,3.25768 1.36637,4.69567c0.330673,0.592256 0.836655,1.32418 1.62011,1.03704c0.659256,-0.241626 1.15255,-0.935654 1.52777,-1.48854c1.08662,-1.60116 1.79695,-3.41151 2.37603,-5.24647c0.25132,-0.796369 0.443228,-1.64379 0.833143,-2.38829c0.0447837,-0.08551 0.234734,-0.508255 0.429851,-0.409421c0.412578,0.208988 0.526046,1.52346 0.606368,1.88693c0.392755,1.7773 0.751996,3.58043 1.5625,5.22727c0.456582,0.927714 1.1557,1.8043 2.28777,1.41213c2.34041,-0.810752 3.48005,-4.66774 4.53346,-6.6206c0.259209,-0.480535 0.859446,-1.97618 1.52368,-2.08919c0.245032,-0.0416872 0.353092,0.317362 0.406969,0.474389c0.274544,0.800162 0.357984,1.6734 0.498905,2.5027c0.360477,2.12135 0.875921,4.28562 1.86568,6.21118c0.368411,0.716737 0.8864,1.65316 1.69284,1.95925c0.913999,0.346913 1.8345,-0.348929 2.40667,-0.990864c1.34435,-1.50827 2.10635,-3.59536 2.94072,-5.40746c0.145097,-0.315124 0.827937,-2.42276 1.43695,-2.23808c0.234463,0.0710987 0.350895,0.537485 0.397677,0.707047c0.285092,1.03331 0.36661,2.13345 0.510754,3.1916c0.394835,2.89846 0.815968,7.3515 3.32399,9.31494c1.16482,0.911892 2.29762,-0.542309 2.89455,-1.4199c1.08926,-1.6014 1.69476,-3.47032 2.42588,-5.24647c0.168997,-0.410553 0.434761,-1.36858 0.912059,-1.57256c0.747751,-0.319562 1.10414,2.15555 1.17631,2.44861c0.0734189,0.298121 0.14173,0.597483 0.214925,0.895659c0.325806,1.32724 1.43095,6.32697 3.20917,3.32195c0.274862,-0.464489 0.555532,-1.12634 0.748153,-1.61889c0.172593,-0.441336 0.596111,-1.65113 0.741207,-2.08592c0.344818,-1.03328 0.66131,-2.0729 0.951638,-3.12255" style="fill:none;stroke-width:1px;stroke:#0081ff;"/><path d="M105.624,47.3976c-3.93362,2.11774 -7.99397,3.99066 -11.8769,6.20342c-4.85547,2.76699 -9.50084,5.90525 -13.9036,9.34517" style="fill:none;stroke-width:1px;stroke:#000;"/><path d="M102.3,55.2886c-6.18412,3.71818 -12.5174,7.08513 -18.5674,11.0523" style="fill:none;stroke-width:1px;stroke:#000;"/><path d="M-3.40408,43.8922c6.14682,2.82438 12.551,4.92834 17.6962,9.54416" style="fill:none;stroke-width:1px;stroke:#000;"/><path d="M-4.90488,52.763c5.74753,1.73277 11.5643,4.2024 16.9321,6.8768" style="fill:none;stroke-width:1px;stroke:#000;"/></g></g></svg>